<svg id="logo" xmlns="http://www.w3.org/2000/svg" xmlns:xlink="http://www.w3.org/1999/xlink" width="317" height="50" viewBox="0 0 317 50">
  <defs>
    <clipPath id="clip-path">
      <rect id="Rectangle_2" data-name="Rectangle 2" width="181.532" height="50"/>
    </clipPath>
  </defs>
  <g id="Logo-2" data-name="Logo">
    <rect id="Rectangle_1" data-name="Rectangle 1" width="181.532" height="50" fill="red"/>
    <g id="Group_6" data-name="Group 6">
      <g id="Group_1" data-name="Group 1" clip-path="url(#clip-path)">
        <path id="Path_1" data-name="Path 1" d="M107.221,33.453a4.364,4.364,0,0,0,1.58.81,7.742,7.742,0,0,0,1.909.2,11.051,11.051,0,0,0,4.779-1.1v2.983a13.747,13.747,0,0,1-5.052.946,7.589,7.589,0,0,1-5.95-2.277c-1.355-1.516-2.037-3.721-2.037-6.6s.682-5.084,2.037-6.6a7.578,7.578,0,0,1,5.95-2.277,13.661,13.661,0,0,1,5.052.962v3a10.718,10.718,0,0,0-4.715-1.131h-.064A5.27,5.27,0,0,0,107,23.6c-.9.818-1.339,2.422-1.339,4.82a10.716,10.716,0,0,0,.393,3.168,3.625,3.625,0,0,0,1.163,1.868m21.532,3.577V26.756c0-1.692-.353-2.815-1.067-3.376a4.359,4.359,0,0,0-2.783-.842,11.584,11.584,0,0,0-4.234.826V37.029h-3.136V13.22h3.136v7.169a12.451,12.451,0,0,1,4.539-.85,6.5,6.5,0,0,1,4.98,1.909,7.719,7.719,0,0,1,1.772,5.437V37.029Zm19.27-4.21a6.242,6.242,0,0,1-.521,1.4,4.693,4.693,0,0,1-1.123,1.5,6,6,0,0,1-2.125,1.107,11.717,11.717,0,0,1-6.592-.016,6.269,6.269,0,0,1-2.149-1.123,4.861,4.861,0,0,1-1.147-1.524,5.527,5.527,0,0,1-.529-1.451,6.9,6.9,0,0,1-.1-1.131,4.529,4.529,0,0,1,2.149-3.986,10.6,10.6,0,0,1,5.926-1.435,23.054,23.054,0,0,1,3.111.2,4.215,4.215,0,0,0-1.179-3.119A5.363,5.363,0,0,0,140.2,22.3a14.816,14.816,0,0,0-4.747.858V20.461a14.439,14.439,0,0,1,5.18-.922,7.685,7.685,0,0,1,5.533,1.86,7.056,7.056,0,0,1,1.957,5.349V31.72a5.055,5.055,0,0,1-.1,1.1m-3.1-3.929a19.471,19.471,0,0,0-2.983-.217,8.381,8.381,0,0,0-1.443.128,12.1,12.1,0,0,0-1.62.393,3.191,3.191,0,0,0-1.443.89,2.113,2.113,0,0,0-.569,1.476c0,1.941,1.371,2.919,4.114,2.919h.048q3.885,0,3.881-2.8V28.89Zm8.661-5.734V37.021h-3.136V21.255a22.38,22.38,0,0,1,8.356-1.716v2.895a22.05,22.05,0,0,0-5.221.722M168,34.463h.032a3.73,3.73,0,0,0,2-.505v2.855a6.158,6.158,0,0,1-2.35.481h-.08a6.042,6.042,0,0,1-1.323-.152,8.59,8.59,0,0,1-1.684-.593A3.572,3.572,0,0,1,162.971,35a5.39,5.39,0,0,1-.634-2.735V22.5h-2.983V19.8h2.983V14.7h3.136V19.8h4.563V22.5h-4.563V32.45c-.008,1.347.834,2.013,2.526,2.013m7.594-8.693a11.073,11.073,0,0,0,2.181.842,24.578,24.578,0,0,1,2.55.874,5.127,5.127,0,0,1,2.189,1.724,5.1,5.1,0,0,1-.642,6.584,6.716,6.716,0,0,1-4.82,1.508,10.05,10.05,0,0,1-4.948-1.211V33.212a9.5,9.5,0,0,0,4.747,1.259h.064a4.447,4.447,0,0,0,2.51-.593,1.793,1.793,0,0,0,.866-1.524,2.006,2.006,0,0,0-.9-1.708,6.9,6.9,0,0,0-2.189-1.01c-.858-.241-1.724-.513-2.574-.81a5.014,5.014,0,0,1-2.181-1.476,3.92,3.92,0,0,1-.9-2.678,4.9,4.9,0,0,1,1.516-3.633,6.378,6.378,0,0,1,4.635-1.5,10.168,10.168,0,0,1,4.587,1.131V23.4a10.11,10.11,0,0,0-4.2-1.026q-3.4,0-3.408,2.205a1.427,1.427,0,0,0,.914,1.195" transform="translate(-20.293 -2.619)" fill="#fff"/>
      </g>
      <g id="Group_2" data-name="Group 2" clip-path="url(#clip-path)">
        <path id="Path_2" data-name="Path 2" d="M53.688,36.254a7,7,0,0,1-6.969,6.969c-.008,0,0-7.033,0-7.033.064.072,6.969.04,6.969.064" transform="translate(-9.253 -7.168)" fill="#fff"/>
      </g>
      <g id="Group_3" data-name="Group 3" clip-path="url(#clip-path)">
        <path id="Path_3" data-name="Path 3" d="M81.328,37.349V26.058a3.723,3.723,0,0,0-.722-2.39,3.465,3.465,0,0,0-2.823-.906,12,12,0,0,0-4.6.962,7.173,7.173,0,0,1,.4,2.462V37.357H70.445V26.09a3.379,3.379,0,0,0-.8-2.39c-.529-.585-1.588-.874-3.168-.874a14.334,14.334,0,0,0-3.745.521v14H59.6V30.421a9.306,9.306,0,0,1-7.771,3.224A11.2,11.2,0,0,1,30.9,37.357H18.16V34.422l8.725-11.387H18.36V20.14h12.55v2.847L22.218,34.35H29.78l-.024-.1A11.305,11.305,0,0,1,38.425,20.87a11.128,11.128,0,0,1,5.325.168,9.319,9.319,0,0,1,17.482-.217,15.5,15.5,0,0,1,5.477-1,7.645,7.645,0,0,1,4.587,1.3,16.812,16.812,0,0,1,6.287-1.3,7.145,7.145,0,0,1,5.068,1.7,6.193,6.193,0,0,1,1.82,4.755V37.341l-3.144.008ZM52.683,17.726a6.626,6.626,0,0,0-6.624,6.624,6.97,6.97,0,0,0,.072,1.01,8.384,8.384,0,1,0,3.047,4.611,6.622,6.622,0,1,0,3.5-12.245" transform="translate(-3.597 -2.939)" fill="#fff"/>
      </g>
      <g id="Group_4" data-name="Group 4" clip-path="url(#clip-path)">
        <path id="Path_4" data-name="Path 4" d="M205.445,21.57a2.045,2.045,0,1,0,2.045,2.045,2.048,2.048,0,0,0-2.045-2.045m0,3.673a1.628,1.628,0,1,1,1.628-1.628,1.629,1.629,0,0,1-1.628,1.628" transform="translate(-40.289 -4.272)" fill="#fff"/>
      </g>
      <g id="Group_5" data-name="Group 5" clip-path="url(#clip-path)">
        <path id="Path_5" data-name="Path 5" d="M206.281,23.987a.516.516,0,0,0-.2-.12.568.568,0,0,0,.3-.2.544.544,0,0,0,.1-.353.5.5,0,0,0-.2-.449,1.046,1.046,0,0,0-.617-.144h-.842v2.141h.553v-.81h.152a.431.431,0,0,1,.217.056.542.542,0,0,1,.16.217l.265.529h.585l-.3-.6a.89.89,0,0,0-.176-.265m-.417-.377a.4.4,0,0,1-.249.064h-.233v-.553h.233a.4.4,0,0,1,.249.064.265.265,0,0,1,.08.208.271.271,0,0,1-.08.217" transform="translate(-40.572 -4.5)" fill="#fff"/>
      </g>
    </g>
  </g>
  <path id="Path_998" data-name="Path 998" d="M14.924,0h4.34l-7.2-18.676H7.084L-.14,0H4.228L5.4-3.22h8.344ZM9.576-15.232l3.08,8.568H6.468ZM20.748-6.776A6.867,6.867,0,0,0,27.916.336a6.233,6.233,0,0,0,5.348-2.464L30.94-4.284a3.413,3.413,0,0,1-2.856,1.456,3.637,3.637,0,0,1-3.668-3.948,3.614,3.614,0,0,1,3.668-3.92A3.28,3.28,0,0,1,30.94-9.24l2.324-2.184a6.293,6.293,0,0,0-5.348-2.436A6.86,6.86,0,0,0,20.748-6.776ZM44.408,0h3.556V-8.736c0-3.892-2.828-5.124-5.908-5.124a8.871,8.871,0,0,0-5.908,2.128l1.344,2.38a5.69,5.69,0,0,1,3.948-1.6c1.792,0,2.968.9,2.968,2.268V-6.8a5.466,5.466,0,0,0-4.284-1.652c-2.156,0-4.7,1.148-4.7,4.312a4.505,4.505,0,0,0,4.7,4.48A5.6,5.6,0,0,0,44.408-1.4Zm0-3.248a3.557,3.557,0,0,1-2.856,1.176C40.152-2.072,39-2.8,39-4.06,39-5.376,40.152-6.1,41.552-6.1a3.557,3.557,0,0,1,2.856,1.176ZM61.488,0h3.584V-18.676H61.488v6.888a5.208,5.208,0,0,0-4.172-2.072c-3.444,0-5.992,2.688-5.992,7.112C51.324-2.24,53.9.336,57.316.336a5.25,5.25,0,0,0,4.172-2.072Zm0-4.368a3.869,3.869,0,0,1-3.08,1.54c-2.016,0-3.416-1.6-3.416-3.92,0-2.352,1.4-3.948,3.416-3.948a3.869,3.869,0,0,1,3.08,1.54Zm6.944-2.408A6.849,6.849,0,0,0,75.656.336,8.43,8.43,0,0,0,81.228-1.54l-1.568-2.3a5.531,5.531,0,0,1-3.612,1.344,3.644,3.644,0,0,1-3.892-3.136H82.208v-.784c0-4.424-2.744-7.448-6.776-7.448A6.883,6.883,0,0,0,68.432-6.776Zm7-4.256a3.133,3.133,0,0,1,3.332,3H72.1A3.25,3.25,0,0,1,75.432-11.032ZM102.256,0h3.584V-9.772c0-2.772-1.484-4.088-3.976-4.088A5.739,5.739,0,0,0,97.216-11.4a3.579,3.579,0,0,0-3.752-2.464,5.915,5.915,0,0,0-4.424,2.1v-1.764H85.484V0H89.04V-9.1a3.63,3.63,0,0,1,2.8-1.6c1.456,0,2.016.9,2.016,2.156V0H97.44V-9.128a3.59,3.59,0,0,1,2.8-1.568c1.456,0,2.016.9,2.016,2.156Zm7.84,2.1-.532,3.192a9.72,9.72,0,0,0,1.764.2c2.324-.056,4.116-.728,5.124-3.276l6.356-15.736h-3.836l-3.528,9.408-3.528-9.408h-3.808L113.6.2l-.5,1.148a1.794,1.794,0,0,1-1.876.98A3.073,3.073,0,0,1,110.1,2.1Z" transform="translate(194.192 35)" fill="#414141"/>
</svg>
