<svg width="200" height="50" viewBox="0 0 200 50" fill="none" xmlns="http://www.w3.org/2000/svg">
<rect width="50" height="50" rx="16" fill="#242321"/>
<path d="M13.5977 32.1758C13.4492 32.1602 13.3359 32.0938 13.2578 31.9766C13.1797 31.8594 13.1484 31.7305 13.1641 31.5898C13.2031 31.3477 13.2773 31.125 13.3867 30.9219C13.4961 30.7188 13.5742 30.5664 13.6211 30.4648C13.6758 30.3633 13.7305 30.25 13.7852 30.125L14.2305 29.0938L19.0469 14.668L24.2266 24.6758L29.2539 14.668L35.2656 32H28.9727L26.0664 23.0469L21.5664 32.4219L16.832 23.9844L15.1914 29.1055C14.9336 29.6758 14.75 30.1602 14.6406 30.5586C14.5312 30.957 14.4414 31.2656 14.3711 31.4844C14.2148 31.9766 13.957 32.207 13.5977 32.1758Z" fill="white"/>
<path d="M72.024 6.2L78.48 15.152L84.96 6.2H87.456V23H84.864V15.968C84.864 14.944 84.88 13.976 84.912 13.064C84.944 12.136 85.016 11.208 85.128 10.28L79.224 18.176H77.64L71.808 10.304C71.92 11.216 71.992 12.136 72.024 13.064C72.056 13.976 72.072 14.944 72.072 15.968V23H69.48V6.2H72.024ZM116.81 14.6C116.81 15.816 116.578 16.952 116.114 18.008C115.666 19.048 115.026 19.96 114.194 20.744C113.362 21.528 112.378 22.144 111.242 22.592C110.106 23.024 108.866 23.24 107.522 23.24C106.146 23.24 104.89 23.024 103.754 22.592C102.618 22.144 101.634 21.528 100.802 20.744C99.9855 19.96 99.3455 19.048 98.8815 18.008C98.4335 16.952 98.2095 15.816 98.2095 14.6C98.2095 13.384 98.4335 12.256 98.8815 11.216C99.3455 10.16 99.9855 9.24 100.802 8.456C101.634 7.672 102.618 7.064 103.754 6.632C104.89 6.184 106.146 5.96 107.522 5.96C108.866 5.96 110.106 6.184 111.242 6.632C112.378 7.064 113.362 7.672 114.194 8.456C115.026 9.24 115.666 10.16 116.114 11.216C116.578 12.256 116.81 13.384 116.81 14.6ZM114.17 14.6C114.17 13.432 113.882 12.392 113.306 11.48C112.746 10.552 111.962 9.824 110.954 9.296C109.962 8.752 108.818 8.48 107.522 8.48C106.194 8.48 105.026 8.752 104.018 9.296C103.026 9.824 102.25 10.552 101.69 11.48C101.13 12.392 100.85 13.432 100.85 14.6C100.85 15.768 101.13 16.816 101.69 17.744C102.25 18.656 103.026 19.384 104.018 19.928C105.026 20.456 106.194 20.72 107.522 20.72C108.818 20.72 109.962 20.456 110.954 19.928C111.962 19.384 112.746 18.648 113.306 17.72C113.882 16.792 114.17 15.752 114.17 14.6ZM130.152 23H127.56V6.2H130.152V14.912L133.896 11.744L140.304 6.2H143.952L135.888 13.04L143.808 23H140.448L133.944 14.696L130.152 17.936V23ZM157.317 23H154.725V6.2H157.317V14.912L161.061 11.744L167.469 6.2H171.117L163.053 13.04L170.973 23H167.613L161.109 14.696L157.317 17.936V23ZM194.826 23L193.026 18.968H184.41L182.61 23H179.922L187.362 6.2H190.218L197.634 23H194.826ZM187.41 12.152L185.514 16.472H191.922L189.978 12.056C189.53 11.064 189.106 10.008 188.706 8.888C188.498 9.48 188.282 10.048 188.058 10.592C187.85 11.136 187.634 11.656 187.41 12.152Z" fill="#242321"/>
<path d="M95.968 41.432C96.384 41.92 96.816 42.296 97.264 42.56C97.72 42.824 98.276 42.956 98.932 42.956C99.284 42.956 99.62 42.912 99.94 42.824C100.268 42.728 100.536 42.588 100.744 42.404C100.96 42.212 101.068 41.976 101.068 41.696C101.068 41.296 100.856 41.008 100.432 40.832C100.008 40.656 99.412 40.512 98.644 40.4C97.7 40.256 96.948 39.992 96.388 39.608C95.828 39.216 95.548 38.648 95.548 37.904C95.548 37.4 95.696 36.968 95.992 36.608C96.296 36.248 96.704 35.972 97.216 35.78C97.728 35.58 98.292 35.48 98.908 35.48C99.676 35.48 100.34 35.608 100.9 35.864C101.46 36.12 101.9 36.484 102.22 36.956L101.332 37.88C101.068 37.512 100.728 37.216 100.312 36.992C99.896 36.76 99.416 36.644 98.872 36.644C98.312 36.644 97.844 36.748 97.468 36.956C97.092 37.156 96.904 37.44 96.904 37.808C96.904 38.24 97.104 38.548 97.504 38.732C97.912 38.908 98.444 39.048 99.1 39.152C99.532 39.216 99.944 39.3 100.336 39.404C100.736 39.508 101.092 39.648 101.404 39.824C101.716 39.992 101.964 40.208 102.148 40.472C102.332 40.736 102.424 41.064 102.424 41.456C102.424 41.992 102.28 42.46 101.992 42.86C101.704 43.26 101.292 43.572 100.756 43.796C100.228 44.012 99.6 44.12 98.872 44.12C98.096 44.12 97.396 43.992 96.772 43.736C96.148 43.48 95.6 43.064 95.128 42.488L95.968 41.432ZM108.758 44V36.848H105.926V35.6H112.946V36.848H110.054V44H108.758ZM124.605 35.588V40.328C124.605 41.048 124.441 41.692 124.113 42.26C123.793 42.82 123.345 43.264 122.769 43.592C122.193 43.912 121.521 44.072 120.753 44.072C119.993 44.072 119.321 43.912 118.737 43.592C118.161 43.264 117.709 42.82 117.381 42.26C117.061 41.692 116.901 41.048 116.901 40.328V35.588H118.197V40.256C118.197 40.752 118.313 41.196 118.545 41.588C118.777 41.972 119.085 42.272 119.469 42.488C119.861 42.704 120.289 42.812 120.753 42.812C121.249 42.812 121.693 42.704 122.085 42.488C122.477 42.272 122.789 41.972 123.021 41.588C123.253 41.196 123.369 40.752 123.369 40.256V35.588H124.605ZM133.283 35.6C134.003 35.6 134.635 35.712 135.179 35.936C135.723 36.152 136.179 36.456 136.547 36.848C136.915 37.232 137.191 37.68 137.375 38.192C137.559 38.696 137.651 39.232 137.651 39.8C137.651 40.568 137.487 41.272 137.159 41.912C136.831 42.544 136.343 43.052 135.695 43.436C135.047 43.812 134.243 44 133.283 44H129.455V35.6H133.283ZM133.223 42.752C133.943 42.752 134.527 42.62 134.975 42.356C135.431 42.084 135.763 41.728 135.971 41.288C136.187 40.84 136.295 40.344 136.295 39.8C136.295 39.272 136.187 38.784 135.971 38.336C135.763 37.888 135.431 37.528 134.975 37.256C134.527 36.984 133.943 36.848 133.223 36.848H130.751V42.752H133.223ZM146.69 44H141.746V42.752H143.57V36.848H141.746V35.6H146.69V36.848H144.866V42.752H146.69V44ZM160.104 39.8C160.104 40.408 159.988 40.976 159.756 41.504C159.532 42.024 159.212 42.48 158.796 42.872C158.38 43.264 157.888 43.572 157.32 43.796C156.752 44.012 156.132 44.12 155.46 44.12C154.772 44.12 154.144 44.012 153.576 43.796C153.008 43.572 152.516 43.264 152.1 42.872C151.692 42.48 151.372 42.024 151.14 41.504C150.916 40.976 150.804 40.408 150.804 39.8C150.804 39.192 150.916 38.628 151.14 38.108C151.372 37.58 151.692 37.12 152.1 36.728C152.516 36.336 153.008 36.032 153.576 35.816C154.144 35.592 154.772 35.48 155.46 35.48C156.132 35.48 156.752 35.592 157.32 35.816C157.888 36.032 158.38 36.336 158.796 36.728C159.212 37.12 159.532 37.58 159.756 38.108C159.988 38.628 160.104 39.192 160.104 39.8ZM158.784 39.8C158.784 39.216 158.64 38.696 158.352 38.24C158.072 37.776 157.68 37.412 157.176 37.148C156.68 36.876 156.108 36.74 155.46 36.74C154.796 36.74 154.212 36.876 153.708 37.148C153.212 37.412 152.824 37.776 152.544 38.24C152.264 38.696 152.124 39.216 152.124 39.8C152.124 40.384 152.264 40.908 152.544 41.372C152.824 41.828 153.212 42.192 153.708 42.464C154.212 42.728 154.796 42.86 155.46 42.86C156.108 42.86 156.68 42.728 157.176 42.464C157.68 42.192 158.072 41.824 158.352 41.36C158.64 40.896 158.784 40.376 158.784 39.8ZM164.687 41.432C165.103 41.92 165.535 42.296 165.983 42.56C166.439 42.824 166.995 42.956 167.651 42.956C168.003 42.956 168.339 42.912 168.659 42.824C168.987 42.728 169.255 42.588 169.463 42.404C169.679 42.212 169.787 41.976 169.787 41.696C169.787 41.296 169.575 41.008 169.151 40.832C168.727 40.656 168.131 40.512 167.363 40.4C166.419 40.256 165.667 39.992 165.107 39.608C164.547 39.216 164.267 38.648 164.267 37.904C164.267 37.4 164.415 36.968 164.711 36.608C165.015 36.248 165.423 35.972 165.935 35.78C166.447 35.58 167.011 35.48 167.627 35.48C168.395 35.48 169.059 35.608 169.619 35.864C170.179 36.12 170.619 36.484 170.939 36.956L170.051 37.88C169.787 37.512 169.447 37.216 169.031 36.992C168.615 36.76 168.135 36.644 167.591 36.644C167.031 36.644 166.563 36.748 166.187 36.956C165.811 37.156 165.623 37.44 165.623 37.808C165.623 38.24 165.823 38.548 166.223 38.732C166.631 38.908 167.163 39.048 167.819 39.152C168.251 39.216 168.663 39.3 169.055 39.404C169.455 39.508 169.811 39.648 170.123 39.824C170.435 39.992 170.683 40.208 170.867 40.472C171.051 40.736 171.143 41.064 171.143 41.456C171.143 41.992 170.999 42.46 170.711 42.86C170.423 43.26 170.011 43.572 169.475 43.796C168.947 44.012 168.319 44.12 167.591 44.12C166.815 44.12 166.115 43.992 165.491 43.736C164.867 43.48 164.319 43.064 163.847 42.488L164.687 41.432Z" fill="#242321"/>
<line x1="178" y1="38.5" x2="200" y2="38.5" stroke="black"/>
<line x1="66" y1="38.5" x2="88" y2="38.5" stroke="black"/>
</svg>
