<svg id="share" xmlns="http://www.w3.org/2000/svg" width="24.065" height="26" viewBox="0 0 24.065 26">
  <path id="share-svgrepo-com" d="M27.616,16.189a4.9,4.9,0,0,0-3.774,1.776l-5.858-3.326a4.895,4.895,0,0,0,0-3.276l5.858-3.327a4.9,4.9,0,1,0-.849-1.492L17.135,9.87a4.905,4.905,0,1,0,0,6.26l5.858,3.326a4.9,4.9,0,1,0,4.623-3.267Zm0-14.473a3.189,3.189,0,1,1-3.189,3.189A3.192,3.192,0,0,1,27.616,1.716ZM13.362,16.189A3.189,3.189,0,1,1,16.55,13,3.193,3.193,0,0,1,13.362,16.189Zm14.254,8.095A3.189,3.189,0,1,1,30.8,21.1,3.192,3.192,0,0,1,27.616,24.284Z" transform="translate(-8.456)" fill="#aeaeae"/>
</svg>
