<?xml version="1.0" encoding="UTF-8" standalone="no"?>
<svg
   xmlns:dc="http://purl.org/dc/elements/1.1/"
   xmlns:cc="http://creativecommons.org/ns#"
   xmlns:rdf="http://www.w3.org/1999/02/22-rdf-syntax-ns#"
   xmlns:svg="http://www.w3.org/2000/svg"
   xmlns="http://www.w3.org/2000/svg"
   xmlns:sodipodi="http://sodipodi.sourceforge.net/DTD/sodipodi-0.dtd"
   xmlns:inkscape="http://www.inkscape.org/namespaces/inkscape"
   inkscape:version="1.0 (4035a4f, 2020-05-01)"
   sodipodi:docname="thumbs-down.svg"
   id="svg951"
   version="1.1"
   viewBox="0 0 25.982 28"
   height="28"
   width="25.982">
  <metadata
     id="metadata957">
    <rdf:RDF>
      <cc:Work
         rdf:about="">
        <dc:format>image/svg+xml</dc:format>
        <dc:type
           rdf:resource="http://purl.org/dc/dcmitype/StillImage" />
      </cc:Work>
    </rdf:RDF>
  </metadata>
  <defs
     id="defs955" />
  <sodipodi:namedview
     inkscape:current-layer="svg951"
     inkscape:window-maximized="0"
     inkscape:window-y="23"
     inkscape:window-x="0"
     inkscape:cy="14"
     inkscape:cx="12.991"
     inkscape:zoom="22.5"
     showgrid="false"
     id="namedview953"
     inkscape:window-height="480"
     inkscape:window-width="689"
     inkscape:pageshadow="2"
     inkscape:pageopacity="0"
     guidetolerance="10"
     gridtolerance="10"
     objecttolerance="10"
     borderopacity="1"
     bordercolor="#666666"
     pagecolor="#ffffff" />
  <path
     transform="translate(-3.5 -2.361)"
     id="path1522"
     d="M 13.865234 2.3613281 C 12.645228 2.3758691 11.427251 2.460231 10.216797 2.6132812 C 9.2152253 2.7298548 8.138974 2.8992778 7.1445312 3.3046875 C 6.1487988 3.710623 5.1917865 4.4084834 4.7207031 5.5253906 C 4.4409864 6.1740572 4.4673405 6.893042 4.7050781 7.5507812 C 4.0055823 8.1879464 3.5337837 9.0420593 3.5 9.9980469 L 3.5 10.015625 L 3.5 10.03125 C 3.4973356 10.837978 3.8464525 11.579857 4.3222656 12.224609 L 4.3027344 12.255859 L 4.2949219 12.234375 L 4.3007812 12.265625 C 4.2939058 12.277517 4.2977541 12.292731 4.2910156 12.304688 C 4.2912791 12.305225 4.2907527 12.306104 4.2910156 12.306641 C 3.9320485 12.94437 3.7668474 13.670326 3.8183594 14.400391 C 3.8128923 15.211818 4.1344681 15.993239 4.7304688 16.546875 L 4.6699219 16.484375 C 4.7157637 16.535146 4.7307435 16.602494 4.7109375 16.667969 L 4.7167969 16.650391 C 4.3428209 17.810762 4.6199056 19.085992 5.4394531 19.988281 C 5.856505 20.454894 6.414839 20.825589 7.0371094 20.970703 C 7.6617147 21.116361 8.2956699 21.097271 9.1367188 21.048828 L 9.1386719 21.048828 L 9.140625 21.048828 C 10.394259 20.971939 12.701505 20.607841 14.248047 20.363281 C 14.677065 20.295291 14.878326 20.266197 15.111328 20.232422 C 14.804431 20.875522 14.517123 21.529176 14.308594 22.210938 C 13.587219 24.276102 13.653319 26.535396 14.5 28.552734 L 14.505859 28.564453 L 14.511719 28.576172 C 14.953735 29.559554 15.887077 30.237621 16.958984 30.353516 L 16.964844 30.353516 L 16.96875 30.353516 C 17.841292 30.438225 18.715721 30.192038 19.414062 29.662109 L 19.5 29.595703 L 19.572266 29.511719 C 19.914432 29.108221 19.937349 28.728116 19.980469 28.4375 C 20.023588 28.146884 20.058028 27.852039 20.164062 27.4375 L 20.169922 27.416016 L 20.175781 27.392578 C 20.346181 26.566548 20.581657 25.755045 20.871094 24.962891 C 20.981148 24.730155 21.542315 24.015979 22.203125 23.357422 C 22.869821 22.692998 23.627789 22.020688 24.167969 21.542969 L 24.169922 21.541016 C 24.426596 21.315419 24.650061 21.118331 24.832031 20.943359 L 24.847656 20.929688 L 24.861328 20.914062 C 25.506102 20.239751 26.081348 19.502601 26.578125 18.712891 L 26.574219 18.720703 C 26.801048 18.367757 27.0505 18.032179 27.320312 17.710938 C 27.525079 17.502357 27.792975 17.368285 28.083984 17.337891 L 27.980469 17.34375 C 28.797051 17.34375 29.480469 16.660332 29.480469 15.84375 L 29.480469 5.8828125 C 29.483687 5.0525406 28.789256 4.3561569 27.958984 4.359375 L 27.939453 4.359375 L 27.921875 4.3613281 C 26.646729 4.4121557 25.37699 4.1858308 24.197266 3.6992188 L 24.195312 3.6992188 C 23.18509 3.2791731 22.121816 3.0019992 21.035156 2.875 C 18.665437 2.5640673 16.280459 2.3923768 13.890625 2.3613281 L 13.876953 2.3613281 L 13.865234 2.3613281 z M 13.875 4.3613281 C 16.185106 4.3917989 18.492563 4.5585205 20.783203 4.859375 L 20.791016 4.859375 L 20.796875 4.859375 C 21.701656 4.9646365 22.588668 5.1970245 23.429688 5.546875 L 23.431641 5.546875 C 24.716723 6.0772759 26.093516 6.3123619 27.480469 6.3242188 L 27.480469 15.541016 C 26.886915 15.688177 26.294993 15.886809 25.867188 16.332031 L 25.845703 16.353516 L 25.826172 16.376953 C 25.48709 16.776629 25.173997 17.197744 24.890625 17.638672 L 24.888672 17.642578 L 24.884766 17.648438 C 24.461802 18.32081 23.972178 18.9468 23.423828 19.521484 C 23.293191 19.646044 23.092805 19.825553 22.847656 20.041016 L 22.845703 20.042969 C 22.304989 20.521158 21.517131 21.215812 20.791016 21.939453 C 20.0649 22.663094 19.402332 23.342439 19.035156 24.154297 L 19.019531 24.185547 L 19.007812 24.220703 C 18.676406 25.119192 18.412712 26.040713 18.21875 26.978516 C 18.218079 26.981761 18.217466 26.985036 18.216797 26.988281 C 18.093419 27.486145 18.040955 27.886647 18.005859 28.125 C 17.746059 28.268944 17.46705 28.389072 17.167969 28.361328 C 16.804447 28.319403 16.494192 28.092454 16.341797 27.759766 C 15.692485 26.199797 15.637721 24.45621 16.197266 22.861328 L 16.205078 22.841797 L 16.210938 22.820312 C 16.427564 22.106479 16.707667 21.413397 17.048828 20.75 L 16.998047 20.837891 C 17.236184 20.471396 17.392113 20.057508 17.455078 19.625 L 17.484375 19.431641 L 17.4375 19.242188 C 17.402098 19.097747 17.342086 18.898248 17.181641 18.6875 C 17.021195 18.476752 16.759768 18.306024 16.535156 18.232422 C 16.089596 18.086417 15.781047 18.135387 15.349609 18.179688 C 15.007202 18.207053 14.557892 18.287781 13.933594 18.386719 C 12.394081 18.630155 10.015508 18.991648 9.0195312 19.052734 L 9.0234375 19.050781 C 8.2324864 19.096338 7.7436291 19.080576 7.4902344 19.021484 C 7.2368397 18.962393 7.1661944 18.922201 6.9277344 18.654297 L 6.9238281 18.650391 L 6.9199219 18.646484 C 6.578524 18.271617 6.4636086 17.746256 6.6191406 17.263672 L 6.6230469 17.255859 L 6.625 17.246094 C 6.8469125 16.512496 6.667923 15.713389 6.1542969 15.144531 L 6.125 15.111328 L 6.0917969 15.082031 C 5.9010517 14.904844 5.7967493 14.654754 5.8046875 14.394531 L 5.8066406 14.337891 L 5.8027344 14.28125 C 5.7729625 13.925729 5.8537873 13.570088 6.0332031 13.261719 L 5.9941406 13.322266 C 6.2713578 12.91586 6.3710673 12.411453 6.2714844 11.929688 L 6.2441406 11.765625 L 6.1914062 11.648438 C 6.1585742 11.576419 6.1215773 11.498235 6.078125 11.410156 L 6.0195312 11.291016 L 5.9335938 11.193359 C 5.6575403 10.87869 5.5111726 10.472809 5.5078125 10.054688 C 5.5293151 9.5880014 5.7525415 9.1560633 6.1308594 8.8808594 L 6.15625 8.8632812 L 6.1796875 8.84375 C 6.6062947 8.4911367 6.8016069 7.9281916 6.7011719 7.3847656 C 6.6762305 7.2319938 6.6350529 7.0833108 6.5644531 6.9453125 L 6.5722656 6.9589844 C 6.4727686 6.7567896 6.466793 6.5230697 6.5566406 6.3164062 L 6.5585938 6.3105469 L 6.5625 6.3046875 C 6.7800499 5.7870578 7.2016726 5.442257 7.8984375 5.1582031 C 8.5952024 4.8741493 9.5218235 4.7060622 10.455078 4.5976562 L 10.460938 4.5976562 L 10.464844 4.5976562 C 11.596058 4.4545555 12.734865 4.3754335 13.875 4.3613281 z M 27.964844 6.3574219 C 27.977286 6.3569688 27.98951 6.359871 28.001953 6.359375 L 27.966797 6.359375 C 27.965766 6.359379 27.965873 6.3574253 27.964844 6.3574219 z M 4.9550781 7.2636719 C 4.9294244 7.2823334 4.9195984 7.3146984 4.8945312 7.3339844 C 4.9034022 7.3253455 4.8966395 7.3087249 4.90625 7.3007812 L 4.9550781 7.2636719 z M 4.7519531 7.7363281 C 4.7597072 7.7538224 4.7574915 7.7736501 4.765625 7.7910156 C 4.7599115 7.7748678 4.7540584 7.7588327 4.75 7.7421875 C 4.7496527 7.7400356 4.7522693 7.7384821 4.7519531 7.7363281 z M 4.3320312 12.25 C 4.389376 12.326503 4.3662418 12.439398 4.4296875 12.511719 L 4.3398438 12.375 L 4.3183594 12.3125 C 4.3168661 12.290573 4.3258494 12.271035 4.3320312 12.25 z "
     style="color:#000000;font-style:normal;font-variant:normal;font-weight:normal;font-stretch:normal;font-size:medium;line-height:normal;font-family:sans-serif;font-variant-ligatures:normal;font-variant-position:normal;font-variant-caps:normal;font-variant-numeric:normal;font-variant-alternates:normal;font-variant-east-asian:normal;font-feature-settings:normal;font-variation-settings:normal;text-indent:0;text-align:start;text-decoration:none;text-decoration-line:none;text-decoration-style:solid;text-decoration-color:#000000;letter-spacing:normal;word-spacing:normal;text-transform:none;writing-mode:lr-tb;direction:ltr;text-orientation:mixed;dominant-baseline:auto;baseline-shift:baseline;text-anchor:start;white-space:normal;shape-padding:0;shape-margin:0;inline-size:0;clip-rule:nonzero;display:inline;overflow:visible;visibility:visible;isolation:auto;mix-blend-mode:normal;color-interpolation:sRGB;color-interpolation-filters:linearRGB;solid-color:#000000;solid-opacity:1;vector-effect:none;fill:#aeaeae;fill-opacity:1;fill-rule:nonzero;stroke:none;stroke-width:2;stroke-linecap:butt;stroke-linejoin:miter;stroke-miterlimit:4;stroke-dasharray:none;stroke-dashoffset:0;stroke-opacity:1;color-rendering:auto;image-rendering:auto;shape-rendering:auto;text-rendering:auto;enable-background:accumulate;stop-color:#000000;stop-opacity:1;opacity:1" />
</svg>
