<?xml version="1.0" encoding="UTF-8" standalone="no"?>
<svg
   xmlns:dc="http://purl.org/dc/elements/1.1/"
   xmlns:cc="http://creativecommons.org/ns#"
   xmlns:rdf="http://www.w3.org/1999/02/22-rdf-syntax-ns#"
   xmlns:svg="http://www.w3.org/2000/svg"
   xmlns="http://www.w3.org/2000/svg"
   xmlns:sodipodi="http://sodipodi.sourceforge.net/DTD/sodipodi-0.dtd"
   xmlns:inkscape="http://www.inkscape.org/namespaces/inkscape"
   inkscape:version="1.0 (4035a4f, 2020-05-01)"
   sodipodi:docname="thumbs-up.svg"
   id="svg902"
   version="1.1"
   viewBox="0 0 25.982 28"
   height="28"
   width="25.982">
  <metadata
     id="metadata908">
    <rdf:RDF>
      <cc:Work
         rdf:about="">
        <dc:format>image/svg+xml</dc:format>
        <dc:type
           rdf:resource="http://purl.org/dc/dcmitype/StillImage" />
      </cc:Work>
    </rdf:RDF>
  </metadata>
  <defs
     id="defs906" />
  <sodipodi:namedview
     inkscape:current-layer="svg902"
     inkscape:window-maximized="1"
     inkscape:window-y="23"
     inkscape:window-x="0"
     inkscape:cy="14"
     inkscape:cx="12.991"
     inkscape:zoom="21.714286"
     showgrid="false"
     id="namedview904"
     inkscape:window-height="816"
     inkscape:window-width="1440"
     inkscape:pageshadow="2"
     inkscape:pageopacity="0"
     guidetolerance="10"
     gridtolerance="10"
     objecttolerance="10"
     borderopacity="1"
     bordercolor="#666666"
     pagecolor="#ffffff" />
  <path
     transform="translate(-3.514 -2.382)"
     id="path912"
     d="M 16.027344 2.3867188 C 15.154802 2.302009 14.280373 2.5501496 13.582031 3.0800781 L 13.496094 3.1464844 L 13.423828 3.2285156 C 13.081662 3.6320136 13.058744 4.0140711 13.015625 4.3046875 C 12.972506 4.5953039 12.938066 4.8881958 12.832031 5.3027344 L 12.826172 5.3261719 L 12.820312 5.3496094 C 12.649789 6.1762411 12.414733 6.9865953 12.125 7.7792969 C 12.014945 8.0120323 11.453778 8.7262084 10.792969 9.3847656 C 10.125585 10.049875 9.3664574 10.721408 8.8261719 11.199219 C 8.5694982 11.424815 8.3460331 11.621903 8.1640625 11.796875 L 8.1484375 11.8125 L 8.1347656 11.826172 C 7.4900011 12.500485 6.9147486 13.239595 6.4179688 14.029297 L 6.421875 14.019531 C 6.1953107 14.372066 5.9432773 14.708391 5.6738281 15.029297 C 5.4692091 15.237145 5.2005802 15.373964 4.9101562 15.404297 L 5.015625 15.398438 C 4.1990425 15.398438 3.515625 16.081855 3.515625 16.898438 L 3.515625 26.859375 C 3.5124069 27.689647 4.2068375 28.386031 5.0371094 28.382812 L 5.0566406 28.382812 L 5.0742188 28.382812 C 6.3500125 28.331959 7.6205502 28.557797 8.8007812 29.044922 L 8.7988281 29.042969 C 9.8095732 29.463423 10.873649 29.740115 11.960938 29.867188 C 11.962988 29.867427 11.964746 29.868902 11.966797 29.869141 C 14.334564 30.179581 16.717631 30.35179 19.105469 30.382812 L 19.119141 30.382812 L 19.130859 30.382812 C 20.348264 30.3683 21.563578 30.283287 22.771484 30.130859 C 23.77523 30.014265 24.854577 29.843946 25.851562 29.4375 C 26.846502 29.031888 27.801956 28.334099 28.273438 27.21875 C 28.555085 26.569212 28.531106 25.848886 28.292969 25.189453 C 28.992438 24.553433 29.464836 23.701374 29.5 22.746094 L 29.5 22.728516 L 29.5 22.712891 C 29.502664 21.906163 29.153548 21.164284 28.677734 20.519531 L 28.697266 20.488281 C 28.697919 20.487158 28.696613 20.485499 28.697266 20.484375 L 28.705078 20.507812 L 28.699219 20.478516 C 28.706088 20.466634 28.702251 20.4514 28.708984 20.439453 C 28.709622 20.438322 28.708348 20.436678 28.708984 20.435547 C 29.06731 19.798199 29.233117 19.071242 29.181641 18.341797 C 29.186555 17.531074 28.865052 16.750456 28.269531 16.197266 L 28.330078 16.259766 C 28.284236 16.208994 28.269257 16.141646 28.289062 16.076172 L 28.283203 16.091797 C 28.656718 14.932858 28.379696 13.659909 27.5625 12.757812 C 27.145261 12.290252 26.586053 11.918759 25.962891 11.773438 C 25.338285 11.627779 24.70433 11.64687 23.863281 11.695312 L 23.861328 11.695312 L 23.859375 11.695312 C 22.605741 11.772202 20.298495 12.136299 18.751953 12.380859 C 18.32393 12.448692 18.124023 12.475929 17.890625 12.509766 C 18.197042 11.867379 18.483126 11.214152 18.691406 10.533203 C 19.412781 8.4680386 19.346681 6.2067918 18.5 4.1894531 L 18.494141 4.1796875 L 18.490234 4.1679688 C 18.04799 3.1817442 17.10992 2.5011773 16.035156 2.3867188 L 16.03125 2.3867188 L 16.027344 2.3867188 z M 15.826172 4.3789062 C 16.192661 4.4189604 16.505069 4.6473431 16.658203 4.9824219 C 17.308222 6.5428466 17.362493 8.28732 16.802734 9.8828125 L 16.794922 9.9023438 L 16.789062 9.921875 C 16.572436 10.635709 16.292333 11.328791 15.951172 11.992188 L 16.001953 11.904297 C 15.763816 12.270791 15.607887 12.68468 15.544922 13.117188 L 15.515625 13.310547 L 15.5625 13.5 C 15.597902 13.644441 15.657914 13.845893 15.818359 14.056641 C 15.978805 14.267388 16.240232 14.436163 16.464844 14.509766 C 16.910404 14.655771 17.218953 14.6068 17.650391 14.5625 C 17.992336 14.535172 18.441463 14.454228 19.064453 14.355469 C 20.60271 14.112219 22.978817 13.752935 23.976562 13.691406 C 24.767514 13.645849 25.256371 13.661611 25.509766 13.720703 C 25.76316 13.779795 25.833806 13.819987 26.072266 14.087891 L 26.076172 14.09375 L 26.080078 14.097656 C 26.421476 14.472523 26.536391 14.995931 26.380859 15.478516 L 26.376953 15.488281 L 26.375 15.496094 C 26.153087 16.229692 26.332077 17.030752 26.845703 17.599609 L 26.875 17.630859 L 26.908203 17.662109 C 27.098948 17.839296 27.203251 18.087434 27.195312 18.347656 L 27.193359 18.40625 L 27.197266 18.462891 C 27.227038 18.818412 27.146213 19.174053 26.966797 19.482422 L 27.005859 19.421875 C 26.728642 19.828281 26.628933 20.330734 26.728516 20.8125 L 26.755859 20.976562 L 26.808594 21.09375 C 26.841426 21.165769 26.878423 21.245905 26.921875 21.333984 L 26.980469 21.451172 L 27.066406 21.550781 C 27.342037 21.864969 27.488375 22.268113 27.492188 22.685547 C 27.469979 23.152768 27.2447 23.586738 26.865234 23.861328 L 26.835938 23.882812 L 26.806641 23.90625 C 26.384267 24.262302 26.19646 24.825744 26.300781 25.367188 C 26.326089 25.517205 26.366147 25.665128 26.435547 25.800781 L 26.425781 25.783203 C 26.524452 25.98541 26.529576 26.219623 26.439453 26.425781 L 26.4375 26.431641 L 26.433594 26.439453 C 26.216044 26.957083 25.794421 27.301884 25.097656 27.585938 C 24.400891 27.869991 23.47427 28.036125 22.541016 28.144531 L 22.535156 28.144531 L 22.53125 28.146484 C 21.400034 28.289583 20.26123 28.368705 19.121094 28.382812 C 16.810988 28.352342 14.503531 28.18562 12.212891 27.884766 L 12.205078 27.882812 L 12.199219 27.882812 C 11.294438 27.777551 10.407425 27.547116 9.5664062 27.197266 L 9.5664062 27.195312 L 9.5644531 27.195312 C 8.2793707 26.664912 6.9025779 26.431779 5.515625 26.419922 L 5.515625 17.199219 C 6.1091129 17.05204 6.7011416 16.855336 7.1289062 16.410156 L 7.1503906 16.386719 L 7.1699219 16.363281 C 7.5090039 15.963605 7.8220966 15.542491 8.1054688 15.101562 L 8.1074219 15.097656 L 8.1113281 15.09375 C 8.5343011 14.421375 9.0239149 13.793443 9.5722656 13.21875 C 9.7029032 13.094191 9.9032892 12.914681 10.148438 12.699219 L 10.150391 12.697266 C 10.691105 12.219076 11.478962 11.524422 12.205078 10.800781 C 12.931194 10.077141 13.593762 9.3997487 13.960938 8.5878906 L 13.976562 8.5546875 L 13.988281 8.5214844 C 14.319192 7.6243403 14.58151 6.7039297 14.775391 5.7675781 C 14.902574 5.2597987 14.954651 4.8569016 14.990234 4.6152344 C 15.249474 4.4716012 15.52774 4.3516147 15.826172 4.3789062 z M 28.570312 20.232422 L 28.662109 20.371094 L 28.681641 20.431641 C 28.683134 20.453568 28.674151 20.473105 28.667969 20.494141 C 28.610624 20.417637 28.633758 20.304743 28.570312 20.232422 z M 28.238281 24.964844 C 28.241678 24.97524 28.245326 24.985498 28.248047 24.996094 C 28.248262 24.997382 28.247842 24.998711 28.248047 25 C 28.243013 24.988673 28.243475 24.976117 28.238281 24.964844 z M 28.107422 25.402344 C 28.09861 25.411098 28.105266 25.427485 28.095703 25.435547 L 28.039062 25.480469 C 28.067826 25.459655 28.079392 25.423941 28.107422 25.402344 z M 5.0292969 26.382812 C 5.0313579 26.382805 5.0311456 26.386697 5.0332031 26.386719 C 5.0201086 26.387193 5.0072359 26.384244 4.9941406 26.384766 L 5.0292969 26.382812 z "
     style="color:#000000;font-style:normal;font-variant:normal;font-weight:normal;font-stretch:normal;font-size:medium;line-height:normal;font-family:sans-serif;font-variant-ligatures:normal;font-variant-position:normal;font-variant-caps:normal;font-variant-numeric:normal;font-variant-alternates:normal;font-variant-east-asian:normal;font-feature-settings:normal;font-variation-settings:normal;text-indent:0;text-align:start;text-decoration:none;text-decoration-line:none;text-decoration-style:solid;text-decoration-color:#000000;letter-spacing:normal;word-spacing:normal;text-transform:none;writing-mode:lr-tb;direction:ltr;text-orientation:mixed;dominant-baseline:auto;baseline-shift:baseline;text-anchor:start;white-space:normal;shape-padding:0;shape-margin:0;inline-size:0;clip-rule:nonzero;display:inline;overflow:visible;visibility:visible;isolation:auto;mix-blend-mode:normal;color-interpolation:sRGB;color-interpolation-filters:linearRGB;solid-color:#000000;solid-opacity:1;vector-effect:none;fill:#aeaeae;fill-opacity:1;fill-rule:nonzero;stroke:none;stroke-width:2;stroke-linecap:butt;stroke-linejoin:miter;stroke-miterlimit:4;stroke-dasharray:none;stroke-dashoffset:0;stroke-opacity:1;color-rendering:auto;image-rendering:auto;shape-rendering:auto;text-rendering:auto;enable-background:accumulate;stop-color:#000000;stop-opacity:1;opacity:1" />
</svg>
