<svg xmlns="http://www.w3.org/2000/svg" width="25.982" height="28" viewBox="0 0 25.982 28">
  <path id="Icon_ionic-ios-thumbs-up" data-name="Icon ionic-ios-thumbs-up" d="M27.452,24.671A2.537,2.537,0,0,0,28.5,22.709a2.743,2.743,0,0,0-.681-1.818c-.037-.075-.069-.144-.1-.212l-.012-.069a.816.816,0,0,1,.125-.625,2.739,2.739,0,0,0,.362-1.606,1.9,1.9,0,0,0-.606-1.45,1.191,1.191,0,0,1-.256-1.143,2.41,2.41,0,0,0-.512-2.362c-.656-.737-1.268-.825-2.9-.731-1.125.069-3.468.431-5.011.675-.631.1-1.181.187-1.35.2-.794.081-.95,0-1.025-.306a2.026,2.026,0,0,1,.306-.812,13.4,13.4,0,0,0,.906-2.237,7.849,7.849,0,0,0-.169-5.636A2.042,2.042,0,0,0,15.93,3.382a2.486,2.486,0,0,0-1.743.494c-.212.25-.144.725-.387,1.675a18.219,18.219,0,0,1-.75,2.624c-.469,1.037-2.481,2.818-3.562,3.774-.256.225-.475.419-.631.569a12.88,12.88,0,0,0-1.593,2.043,10.876,10.876,0,0,1-.856,1.156,2.257,2.257,0,0,1-1.393.681.5.5,0,0,0-.5.5v9.966a.517.517,0,0,0,.519.519,9.847,9.847,0,0,1,4.149.737,10.8,10.8,0,0,0,2.9.756,60.018,60.018,0,0,0,7.036.506,31.141,31.141,0,0,0,3.537-.244c1.937-.225,4.012-.675,4.7-2.312a1.765,1.765,0,0,0-.031-1.481.491.491,0,0,1-.05-.162A.529.529,0,0,1,27.452,24.671Z" transform="translate(-3.514 -2.382)" fill="none" stroke="#aeaeae" stroke-width="2"/>
</svg>
